<?xml version="1.0" standalone="no"?>
<!DOCTYPE svg PUBLIC "-//W3C//DTD SVG 20010904//EN"
 "http://www.w3.org/TR/2001/REC-SVG-20010904/DTD/svg10.dtd">
<svg version="1.0" xmlns="http://www.w3.org/2000/svg"
 width="700.000000pt" height="700.000000pt" viewBox="0 0 700.000000 700.000000"
 preserveAspectRatio="xMidYMid meet">
<metadata>
Created by potrace 1.14, written by Peter Selinger 2001-2017
</metadata>
<g transform="translate(0.000000,700.000000) scale(0.100000,-0.100000)"
fill="#C9184A" stroke="none">
<path d="M4641 6352 c-39 -202 -34 -175 -70 -352 -17 -80 -32 -156 -35 -170
-2 -14 -34 -177 -71 -362 l-68 -337 91 -93 c167 -170 282 -332 383 -537 161
-327 241 -742 207 -1076 -12 -124 -17 -167 -22 -184 -3 -9 -7 -34 -11 -56 -11
-78 -67 -272 -100 -350 -75 -176 -132 -282 -224 -418 -162 -240 -410 -472
-656 -615 -99 -57 -345 -169 -345 -157 0 2 14 73 31 157 17 84 32 164 35 178
2 14 7 36 10 50 3 14 8 34 10 45 8 45 13 73 27 140 9 39 18 84 20 100 3 17 30
154 61 305 30 151 57 286 60 300 2 14 11 57 19 95 9 39 18 90 22 115 4 24 8
47 11 51 9 16 19 121 18 200 -3 211 -98 323 -284 334 -65 4 -163 -9 -305 -39
-79 -17 -384 -79 -400 -81 -20 -3 -110 -21 -155 -30 -14 -3 -70 -15 -125 -26
-55 -11 -109 -22 -120 -24 -81 -18 -170 -33 -174 -29 -2 2 20 122 49 266 28
145 54 271 56 281 17 88 79 398 99 492 9 44 19 91 21 105 4 23 28 147 38 195
36 171 48 255 49 330 1 112 -5 143 -38 210 -60 124 -191 171 -383 139 -102
-17 -106 -18 -187 -47 -376 -132 -756 -480 -985 -899 -30 -56 -38 -78 -27 -78
8 0 70 11 138 25 68 14 135 28 149 30 14 3 98 20 188 39 l163 33 -5 -36 c-7
-47 -16 -92 -21 -111 -2 -8 -7 -28 -10 -45 -5 -34 -8 -48 -30 -155 -20 -98
-15 -76 -79 -390 -30 -151 -57 -288 -60 -305 -3 -16 -25 -127 -50 -245 -24
-118 -47 -228 -49 -245 -3 -16 -15 -77 -27 -135 -26 -131 -29 -145 -34 -172
-2 -13 -13 -68 -25 -123 -11 -55 -23 -111 -25 -125 -3 -20 -82 -411 -102 -505
-2 -11 -7 -33 -10 -50 -3 -16 -9 -48 -14 -70 -5 -22 -12 -56 -15 -75 -3 -19
-17 -91 -31 -160 -14 -69 -28 -136 -31 -150 -2 -14 -24 -124 -49 -245 -24
-121 -46 -229 -48 -240 -8 -40 -36 -180 -40 -200 -14 -66 -36 -175 -41 -205
-3 -19 -10 -51 -15 -70 -6 -19 -10 -45 -10 -58 0 -27 -15 -28 210 18 85 17
166 34 180 36 14 2 36 7 50 10 14 3 36 8 50 10 14 3 113 23 220 44 108 22 198
40 202 40 6 0 14 28 23 85 3 17 10 50 15 75 5 25 12 56 14 70 2 14 16 81 30
150 13 69 27 136 30 150 2 14 11 59 20 100 8 41 17 86 20 100 2 14 16 81 30
150 14 69 27 136 29 150 3 14 16 81 31 150 14 69 27 136 30 150 2 14 12 61 21
105 10 44 19 89 21 100 1 11 9 52 17 90 9 39 18 84 20 100 3 17 15 77 27 135
27 130 24 117 46 228 9 50 22 92 28 93 6 0 18 2 26 4 200 43 585 118 613 118
44 1 77 -26 81 -66 1 -15 -5 -64 -15 -110 -10 -45 -20 -95 -23 -112 -3 -16
-12 -64 -21 -105 -40 -197 -86 -424 -90 -448 -3 -15 -7 -36 -9 -47 -6 -30
-107 -536 -111 -555 -2 -8 -15 -73 -29 -145 -28 -136 -33 -164 -41 -205 -3
-14 -7 -34 -9 -45 -2 -11 -16 -81 -31 -155 -14 -74 -28 -141 -31 -148 -2 -7 0
-11 4 -8 5 3 35 10 68 15 32 6 158 31 279 56 121 25 236 48 255 51 19 3 55 10
80 16 25 5 56 12 70 14 14 3 66 14 115 25 50 11 101 22 115 25 14 3 43 10 65
16 22 5 49 12 60 14 34 6 255 80 335 112 750 300 1355 894 1673 1642 93 218
171 487 202 695 3 22 8 47 10 55 5 15 9 58 21 205 13 151 7 502 -11 606 -65
396 -114 573 -227 839 -170 398 -416 745 -748 1053 -94 88 -275 229 -346 270
-6 4 -22 -53 -43 -161z"/>
<path d="M1750 6506 c0 -3 30 -76 66 -163 37 -87 81 -194 99 -238 18 -44 56
-134 83 -200 l50 -120 444 -3 444 -2 59 142 c32 79 64 157 71 173 43 96 171
411 168 413 -1 2 -168 -77 -370 -177 -201 -100 -368 -181 -369 -181 -2 0 -169
81 -370 180 -202 99 -369 180 -371 180 -2 0 -4 -2 -4 -4z"/>
</g>
</svg>
